<?xml version="1.0" standalone="no"?>
<!DOCTYPE svg PUBLIC "-//W3C//DTD SVG 20010904//EN"
 "http://www.w3.org/TR/2001/REC-SVG-20010904/DTD/svg10.dtd">
<svg version="1.0" xmlns="http://www.w3.org/2000/svg"
 width="256.000000pt" height="197.000000pt" viewBox="0 0 256.000000 197.000000"
 preserveAspectRatio="xMidYMid meet">

<g transform="translate(0.000000,197.000000) scale(0.100000,-0.100000)"
fill="#000000" stroke="none">
<path d="M1011 1390 c-142 -20 -341 -79 -341 -102 0 -5 -6 -8 -12 -7 -19 4
-68 -23 -62 -32 3 -5 0 -9 -7 -9 -7 0 -10 -2 -7 -5 9 -9 38 6 32 17 -3 5 0 8
7 7 8 -1 36 8 63 20 125 56 340 102 459 100 34 -1 49 -4 32 -6 -97 -12 -291
-70 -368 -110 l-31 -16 52 -19 c59 -22 92 -58 92 -99 0 -28 -1 -29 -55 -29
-45 0 -56 4 -65 21 -9 16 -19 19 -48 17 -24 -2 -37 -8 -37 -18 0 -14 31 -28
116 -51 26 -7 53 -18 61 -23 72 -55 61 -164 -22 -206 -52 -26 -170 -28 -219
-2 -40 20 -70 57 -73 92 -3 24 0 25 58 28 56 3 61 1 72 -22 21 -46 102 -42
102 4 0 16 -16 24 -82 45 -84 26 -116 44 -135 79 -10 18 -11 18 -23 -5 -17
-33 -89 -101 -100 -94 -16 10 -23 73 -12 105 6 16 7 30 3 30 -10 0 -31 -69
-31 -100 0 -112 111 -218 302 -290 254 -94 676 -118 953 -53 158 37 309 109
383 182 17 17 36 29 44 26 21 -7 50 22 54 55 2 19 0 29 -6 25 -6 -3 -10 -12
-10 -19 0 -8 -7 -19 -15 -26 -19 -16 -19 0 0 26 8 10 15 30 15 43 0 23 1 24
20 6 20 -18 20 -17 20 31 -1 45 -2 47 -13 26 -12 -22 -14 -20 -26 29 -11 42
-26 64 -80 118 -97 97 -221 153 -441 197 -98 19 -510 29 -619 14z m51 -218
c-2 -29 -1 -56 2 -61 3 -5 24 -3 46 5 49 17 92 9 122 -23 21 -23 23 -33 23
-146 l0 -122 -55 0 -55 0 -5 100 -5 100 -27 3 c-37 4 -48 -25 -48 -129 l0 -80
-52 3 -53 3 -3 203 -2 203 57 -3 58 -3 -3 -53z m874 -14 c-18 -26 -20 -38 -6
-38 6 0 10 6 10 14 0 8 7 17 16 20 8 3 12 10 9 16 -9 14 8 13 23 -2 17 -17 15
-53 -3 -68 -12 -10 -15 -10 -15 3 0 9 5 19 10 22 6 3 10 10 10 16 0 5 -4 9
-10 9 -5 0 -10 -7 -10 -15 0 -8 -6 -14 -12 -12 -7 1 -12 -6 -10 -15 5 -28 -27
-10 -35 20 -4 18 -1 29 12 39 26 18 29 16 11 -9z m-398 -52 c35 -18 41 -40 43
-181 l2 -100 -47 -3 c-27 -2 -54 2 -62 9 -11 9 -18 9 -26 1 -20 -20 -121 -15
-145 8 -27 24 -38 72 -23 100 17 32 70 60 113 60 40 0 77 14 77 30 0 5 -9 14
-21 20 -16 9 -26 8 -44 -4 -14 -9 -45 -16 -70 -16 -37 0 -45 3 -45 18 0 25 35
61 68 68 15 3 32 8 37 10 21 8 114 -5 143 -20z m344 -3 c31 -27 39 -67 36
-173 l-3 -105 -55 0 -55 0 -5 100 c-5 96 -6 100 -29 103 -37 6 -46 -13 -51
-111 l-5 -92 -52 -3 -53 -3 0 150 0 151 55 0 c45 0 55 -3 55 -17 0 -15 2 -15
18 0 32 29 111 29 144 0z m205 -155 c-3 -7 -5 -2 -5 12 0 14 2 19 5 13 2 -7 2
-19 0 -25z m-47 -28 c0 -5 -4 -10 -9 -10 -6 0 -13 5 -16 10 -3 6 1 10 9 10 9
0 16 -4 16 -10z m6 -38 c-17 -16 -18 -16 -5 5 7 12 15 20 18 17 3 -2 -3 -12
-13 -22z m-43 -6 c-14 -19 -20 -21 -26 -10 -11 19 0 34 24 34 19 0 19 -1 2
-24z m-47 -17 c-5 -29 -4 -31 17 -26 19 5 18 3 -8 -18 -16 -14 -34 -25 -40
-24 -5 0 -4 3 3 6 6 2 12 22 12 42 0 34 6 51 18 51 2 0 2 -14 -2 -31z m-58
-77 c2 -8 -2 -10 -14 -5 -11 4 -15 3 -11 -4 10 -16 -21 -25 -44 -13 -19 11
-24 22 -13 33 11 10 77 2 82 -11z m-80 -37 c5 -4 -89 -35 -105 -35 -11 0 -11
4 -1 20 7 11 16 20 21 20 4 0 5 -5 1 -11 -4 -7 1 -9 12 -7 11 2 18 10 16 16
-1 9 6 10 25 6 16 -4 29 -8 31 -9z m-183 -55 c-26 -11 -68 -12 -61 -2 2 4 22
8 43 9 29 0 33 -1 18 -7z"/>
<path d="M1418 938 c-33 -12 -37 -44 -7 -53 24 -8 59 19 59 47 0 20 -11 21
-52 6z"/>
<path d="M1837 774 c3 -7 9 -14 14 -14 14 0 10 17 -5 23 -10 4 -13 1 -9 -9z"/>
<path d="M556 1213 c-6 -14 -5 -15 5 -6 7 7 10 15 7 18 -3 3 -9 -2 -12 -12z"/>
<path d="M480 1135 c-7 -9 -11 -17 -9 -20 3 -2 10 5 17 15 14 24 10 26 -8 5z"/>
<path d="M2105 840 c3 -5 8 -10 11 -10 2 0 4 5 4 10 0 6 -5 10 -11 10 -5 0 -7
-4 -4 -10z"/>
<path d="M2080 819 c0 -5 5 -7 10 -4 6 3 10 8 10 11 0 2 -4 4 -10 4 -5 0 -10
-5 -10 -11z"/>
<path d="M2034 779 c-19 -22 -19 -22 1 -11 11 6 27 16 35 22 13 8 13 10 -1 10
-9 0 -24 -10 -35 -21z"/>
</g>
</svg>
